
<svg xmlns="http://www.w3.org/2000/svg" version="1.1" xmlns:xlink="http://www.w3.org/1999/xlink" preserveAspectRatio="none" x="0px" y="0px" width="750px" height="350px" viewBox="0 0 750 350">
<defs>
<g id="Layer0_0_FILL">
<path fill="#000000" stroke="none" d="
M 676.45 271.45
L 676.1 271.45 676.1 319.9 682.5 319.9 682.35 286.4 716.85 321.4 717.05 321.4 717.05 272.9 710.75 272.9 710.9 306.95 676.45 271.45
M 601.15 274.3
Q 596.8 276.25 593.5 279.55 590.2 282.85 588.35 287.2 586.5 291.55 586.5 296.45 586.5 301.5 588.35 305.9 590.2 310.3 593.5 313.5 596.8 316.8 601.15 318.6 605.45 320.4 610.4 320.4 615.35 320.4 619.7 318.55 624.15 316.75 627.45 313.4 630.75 310.1 632.65 305.8 634.5 301.45 634.5 296.45 634.5 291.55 632.65 287.2 630.75 282.85 627.45 279.55 624.15 276.25 619.7 274.3 615.35 272.4 610.4 272.4 605.45 272.4 601.15 274.3
M 593 296.5
Q 593 291.55 595.3 287.45 597.6 283.35 601.55 280.9 605.55 278.4 610.5 278.4 614.1 278.4 617.3 279.8 620.5 281.2 622.9 283.7 625.25 286.15 626.65 289.45 628.05 292.75 628.05 296.45 628.05 301.45 625.7 305.5 623.35 309.55 619.4 311.95 615.45 314.3 610.6 314.3 606.9 314.3 603.7 312.95 600.5 311.6 598.1 309.1 595.75 306.65 594.35 303.45 593 300.2 593 296.5
M 523.7 272.4
Q 518.75 272.4 514.45 274.3 510.1 276.25 506.8 279.55 503.5 282.85 501.65 287.2 499.8 291.55 499.8 296.45 499.8 301.5 501.65 305.9 503.5 310.3 506.8 313.5 510.1 316.8 514.45 318.6 518.75 320.4 523.7 320.4 528.65 320.4 533 318.55 537.45 316.75 540.75 313.4 544.05 310.1 545.95 305.8 547.8 301.45 547.8 296.45 547.8 291.55 545.95 287.2 544.05 282.85 540.75 279.55 537.45 276.25 533 274.3 528.65 272.4 523.7 272.4
M 506.3 296.5
Q 506.3 291.55 508.6 287.45 510.9 283.35 514.85 280.9 518.85 278.4 523.8 278.4 527.4 278.4 530.6 279.8 533.8 281.2 536.2 283.7 538.55 286.15 539.95 289.45 541.35 292.75 541.35 296.45 541.35 301.45 539 305.5 536.65 309.55 532.7 311.95 528.75 314.3 523.9 314.3 520.2 314.3 517 312.95 513.8 311.6 511.4 309.1 509.05 306.65 507.65 303.45 506.3 300.2 506.3 296.5
M 411.5 271.4
L 411.45 271.4 411.45 319.9 417.6 319.9 417.6 290.4 434.55 314 434.65 314 451.95 289.55 451.95 319.9 458.2 319.9 458.2 271.4 458.1 271.4 434.65 304.2 411.5 271.4
M 358.95 272.9
L 352.6 272.9 352.6 319.9 358.95 319.9 358.95 272.9
M 271.3 272.9
L 271.3 278.95 283.6 278.95 283.6 319.9 289.9 319.9 289.9 278.95 302.5 278.95 302.5 272.9 271.3 272.9
M 209.65 272.9
L 203.3 272.9 203.3 319.9 233.55 319.9 233.55 313.75 209.65 313.75 209.65 272.9
M 130.4 272.9
L 124.15 272.9 124.15 303.45
Q 124.15 308.6 126.45 312.4 128.8 316.25 132.75 318.35 136.75 320.4 141.7 320.4 146.6 320.4 150.6 318.35 154.6 316.25 157 312.4 159.35 308.6 159.35 303.45
L 159.35 272.9 153.2 272.9 153.2 303.25
Q 153.2 306.4 151.65 308.9 150.15 311.4 147.55 312.85 145 314.3 141.7 314.3 138.55 314.3 136 312.85 133.4 311.4 131.9 308.9 130.4 306.4 130.4 303.25
L 130.4 272.9
M 33.5 271.4
L 33.45 271.4 33.45 319.9 39.6 319.9 39.6 290.4 56.55 314 56.65 314 73.95 289.55 73.95 319.9 80.2 319.9 80.2 271.4 80.1 271.4 56.65 304.2 33.5 271.4
M 23.95 138.2
Q 23.95 138.3 23.95 138.45 23.95 181.9 54.7 212.65 82.6 240.55 121 243.15 83 198.7 83 138.45 83 138.35 83 138.2 83.1 78.15 120.95 33.8 82.6 36.35 54.7 64.25 24.05 94.9 23.95 138.2
M 226.5 138.2
Q 226.5 80.05 261.35 36.4 248.75 33.25 234.9 33.25 191.45 33.25 160.7 64 129.95 94.75 129.95 138.2 129.95 181.65 160.7 212.4 191.45 243.15 234.9 243.15 248.75 243.15 261.35 240.05 226.5 196.35 226.5 138.2
M 478.85 138.2
Q 478.85 95.55 448.7 65.4 418.55 35.25 375.9 35.25 333.25 35.25 303.1 65.4 272.95 95.55 272.95 138.2 272.95 180.85 303.1 211 333.25 241.15 375.9 241.15 418.55 241.15 448.7 211 478.85 180.85 478.85 138.2
M 516.9 33.25
Q 503.05 33.25 490.45 36.4 525.3 80.05 525.3 138.2 525.3 196.35 490.45 240.05 503.05 243.15 516.9 243.15 560.35 243.15 591.1 212.4 621.85 181.65 621.85 138.2 621.85 94.75 591.1 64 560.35 33.25 516.9 33.25
M 727.85 138.45
Q 727.85 138.3 727.85 138.2 727.75 94.9 697.1 64.25 669.2 36.35 630.85 33.8 668.7 78.15 668.8 138.2 668.8 138.35 668.8 138.45 668.8 198.7 630.8 243.15 669.2 240.55 697.1 212.65 727.85 181.9 727.85 138.45 Z"/>
</g>

<path id="Layer0_0_1_STROKES" stroke="#000000" stroke-width="1" stroke-linejoin="round" stroke-linecap="round" fill="none" d="
M 727.85 138.45
Q 727.85 181.9 697.1 212.65 669.2 240.55 630.8 243.15 668.8 198.7 668.8 138.45 668.8 138.35 668.8 138.2 668.7 78.15 630.85 33.8 669.2 36.35 697.1 64.25 727.75 94.9 727.85 138.2 727.85 138.3 727.85 138.45 Z
M 621.85 138.2
Q 621.85 181.65 591.1 212.4 560.35 243.15 516.9 243.15 503.05 243.15 490.45 240.05 525.3 196.35 525.3 138.2 525.3 80.05 490.45 36.4 503.05 33.25 516.9 33.25 560.35 33.25 591.1 64 621.85 94.75 621.85 138.2 Z
M 478.85 138.2
Q 478.85 180.85 448.7 211 418.55 241.15 375.9 241.15 333.25 241.15 303.1 211 272.95 180.85 272.95 138.2 272.95 95.55 303.1 65.4 333.25 35.25 375.9 35.25 418.55 35.25 448.7 65.4 478.85 95.55 478.85 138.2 Z
M 129.95 138.2
Q 129.95 181.65 160.7 212.4 191.45 243.15 234.9 243.15 248.75 243.15 261.35 240.05 226.5 196.35 226.5 138.2 226.5 80.05 261.35 36.4 248.75 33.25 234.9 33.25 191.45 33.25 160.7 64 129.95 94.75 129.95 138.2 Z
M 23.95 138.45
Q 23.95 181.9 54.7 212.65 82.6 240.55 121 243.15 83 198.7 83 138.45 83 138.35 83 138.2 83.1 78.15 120.95 33.8 82.6 36.35 54.7 64.25 24.05 94.9 23.95 138.2 23.95 138.3 23.95 138.45 Z"/>
</defs>

<g transform="matrix( 1, 0, 0, 1, 0,0) ">
<use xlink:href="#Layer0_0_FILL"/>

<use xlink:href="#Layer0_0_1_STROKES"/>
</g>
</svg>
